<svg width="249" height="66" viewBox="0 0 249 66" fill="none" xmlns="http://www.w3.org/2000/svg">
<path d="M37.44 16.12L23.28 43.42V58H14.88V43.42L0.66 16.12H10.14L19.14 35.26L28.08 16.12H37.44ZM58.7245 58.42C54.8045 58.42 51.2045 57.5 47.9245 55.66C44.6445 53.82 42.0445 51.28 40.1245 48.04C38.2045 44.76 37.2445 41.06 37.2445 36.94C37.2445 32.86 38.2045 29.2 40.1245 25.96C42.0445 22.68 44.6445 20.12 47.9245 18.28C51.2045 16.44 54.8045 15.52 58.7245 15.52C62.6845 15.52 66.2845 16.44 69.5245 18.28C72.8045 20.12 75.3845 22.68 77.2645 25.96C79.1845 29.2 80.1445 32.86 80.1445 36.94C80.1445 41.06 79.1845 44.76 77.2645 48.04C75.3845 51.28 72.8045 53.82 69.5245 55.66C66.2445 57.5 62.6445 58.42 58.7245 58.42ZM58.7245 50.92C61.2445 50.92 63.4645 50.36 65.3845 49.24C67.3045 48.08 68.8045 46.44 69.8845 44.32C70.9645 42.2 71.5045 39.74 71.5045 36.94C71.5045 34.14 70.9645 31.7 69.8845 29.62C68.8045 27.5 67.3045 25.88 65.3845 24.76C63.4645 23.64 61.2445 23.08 58.7245 23.08C56.2045 23.08 53.9645 23.64 52.0045 24.76C50.0845 25.88 48.5845 27.5 47.5045 29.62C46.4245 31.7 45.8845 34.14 45.8845 36.94C45.8845 39.74 46.4245 42.2 47.5045 44.32C48.5845 46.44 50.0845 48.08 52.0045 49.24C53.9645 50.36 56.2045 50.92 58.7245 50.92ZM91.6739 16.12V42.04C91.6739 44.88 92.4139 47.06 93.8939 48.58C95.3739 50.06 97.4539 50.8 100.134 50.8C102.854 50.8 104.954 50.06 106.434 48.58C107.914 47.06 108.654 44.88 108.654 42.04V16.12H117.114V41.98C117.114 45.54 116.334 48.56 114.774 51.04C113.254 53.48 111.194 55.32 108.594 56.56C106.034 57.8 103.174 58.42 100.014 58.42C96.8939 58.42 94.0539 57.8 91.4939 56.56C88.9739 55.32 86.9739 53.48 85.4939 51.04C84.0139 48.56 83.2739 45.54 83.2739 41.98V16.12H91.6739ZM136.69 58.42C133.77 58.42 131.13 57.92 128.77 56.92C126.45 55.92 124.61 54.48 123.25 52.6C121.89 50.72 121.19 48.5 121.15 45.94H130.15C130.27 47.66 130.87 49.02 131.95 50.02C133.07 51.02 134.59 51.52 136.51 51.52C138.47 51.52 140.01 51.06 141.13 50.14C142.25 49.18 142.81 47.94 142.81 46.42C142.81 45.18 142.43 44.16 141.67 43.36C140.91 42.56 139.95 41.94 138.79 41.5C137.67 41.02 136.11 40.5 134.11 39.94C131.39 39.14 129.17 38.36 127.45 37.6C125.77 36.8 124.31 35.62 123.07 34.06C121.87 32.46 121.27 30.34 121.27 27.7C121.27 25.22 121.89 23.06 123.13 21.22C124.37 19.38 126.11 17.98 128.35 17.02C130.59 16.02 133.15 15.52 136.03 15.52C140.35 15.52 143.85 16.58 146.53 18.7C149.25 20.78 150.75 23.7 151.03 27.46H141.79C141.71 26.02 141.09 24.84 139.93 23.92C138.81 22.96 137.31 22.48 135.43 22.48C133.79 22.48 132.47 22.9 131.47 23.74C130.51 24.58 130.03 25.8 130.03 27.4C130.03 28.52 130.39 29.46 131.11 30.22C131.87 30.94 132.79 31.54 133.87 32.02C134.99 32.46 136.55 32.98 138.55 33.58C141.27 34.38 143.49 35.18 145.21 35.98C146.93 36.78 148.41 37.98 149.65 39.58C150.89 41.18 151.51 43.28 151.51 45.88C151.51 48.12 150.93 50.2 149.77 52.12C148.61 54.04 146.91 55.58 144.67 56.74C142.43 57.86 139.77 58.42 136.69 58.42ZM170.252 58.42C167.332 58.42 164.692 57.92 162.332 56.92C160.012 55.92 158.172 54.48 156.812 52.6C155.452 50.72 154.752 48.5 154.712 45.94H163.712C163.832 47.66 164.432 49.02 165.512 50.02C166.632 51.02 168.152 51.52 170.072 51.52C172.032 51.52 173.572 51.06 174.692 50.14C175.812 49.18 176.372 47.94 176.372 46.42C176.372 45.18 175.992 44.16 175.232 43.36C174.472 42.56 173.512 41.94 172.352 41.5C171.232 41.02 169.672 40.5 167.672 39.94C164.952 39.14 162.732 38.36 161.012 37.6C159.332 36.8 157.872 35.62 156.632 34.06C155.432 32.46 154.832 30.34 154.832 27.7C154.832 25.22 155.452 23.06 156.692 21.22C157.932 19.38 159.672 17.98 161.912 17.02C164.152 16.02 166.712 15.52 169.592 15.52C173.912 15.52 177.412 16.58 180.092 18.7C182.812 20.78 184.312 23.7 184.592 27.46H175.352C175.272 26.02 174.652 24.84 173.492 23.92C172.372 22.96 170.872 22.48 168.992 22.48C167.352 22.48 166.032 22.9 165.032 23.74C164.072 24.58 163.592 25.8 163.592 27.4C163.592 28.52 163.952 29.46 164.672 30.22C165.432 30.94 166.352 31.54 167.432 32.02C168.552 32.46 170.112 32.98 172.112 33.58C174.832 34.38 177.052 35.18 178.772 35.98C180.492 36.78 181.972 37.98 183.212 39.58C184.452 41.18 185.072 43.28 185.072 45.88C185.072 48.12 184.492 50.2 183.332 52.12C182.172 54.04 180.472 55.58 178.232 56.74C175.992 57.86 173.332 58.42 170.252 58.42Z" fill="black"/>
<path d="M195 40.56C197.04 39.84 198.9 39.1 200.58 38.34C202.3 37.58 203.7 36.76 204.78 35.88C206.26 34.64 207.42 33.18 208.26 31.5C209.14 29.78 209.58 27.9 209.58 25.86C209.58 24.82 209.5 24.16 209.34 23.88C209.18 23.56 208.94 23.4 208.62 23.4C207.66 23.4 206.62 23.84 205.5 24.72C204.42 25.6 203.34 26.82 202.26 28.38C201.18 29.9 200.18 31.64 199.26 33.6C198.38 35.52 197.66 37.58 197.1 39.78C196.58 41.94 196.32 44.08 196.32 46.2C196.32 48.28 196.7 49.76 197.46 50.64C198.26 51.52 199.3 51.96 200.58 51.96C201.9 51.96 203.36 51.56 204.96 50.76C206.56 49.92 208.14 48.44 209.7 46.32L210.66 46.8C209.86 48.12 208.82 49.4 207.54 50.64C206.26 51.88 204.8 52.9 203.16 53.7C201.56 54.46 199.82 54.84 197.94 54.84C196.3 54.84 194.84 54.52 193.56 53.88C192.28 53.24 191.28 52.3 190.56 51.06C189.88 49.78 189.54 48.22 189.54 46.38C189.54 44.54 189.86 42.54 190.5 40.38C191.18 38.18 192.12 36.02 193.32 33.9C194.56 31.78 196.02 29.84 197.7 28.08C199.38 26.28 201.26 24.86 203.34 23.82C205.42 22.78 207.62 22.26 209.94 22.26C211.38 22.26 212.58 22.62 213.54 23.34C214.5 24.02 214.98 25.06 214.98 26.46C214.98 28.06 214.52 29.56 213.6 30.96C212.72 32.32 211.52 33.56 210 34.68C208.48 35.8 206.82 36.8 205.02 37.68C203.26 38.56 201.48 39.32 199.68 39.96C197.92 40.6 196.34 41.12 194.94 41.52L195 40.56ZM215.723 24.3L216.083 23.1H234.503L234.143 24.3H215.723ZM235.883 8.04C235.163 8.04 234.523 8.18 233.963 8.46C233.443 8.74 232.963 9.08 232.523 9.48C231.883 10.08 231.303 11 230.783 12.24C230.303 13.44 229.843 14.84 229.403 16.44C228.963 18 228.523 19.7 228.083 21.54L216.563 64.44C215.363 64.48 214.223 64.56 213.143 64.68C212.063 64.8 211.023 65 210.023 65.28L221.303 23.22C222.143 19.98 223.063 17.3 224.063 15.18C225.103 13.02 226.323 11.3 227.723 10.02C228.723 9.1 229.903 8.38 231.263 7.86C232.663 7.34 234.103 7.08 235.583 7.08C237.623 7.08 239.203 7.54 240.323 8.46C241.443 9.34 242.003 10.46 242.003 11.82C242.003 12.54 241.803 13.26 241.403 13.98C241.003 14.66 240.463 15.22 239.783 15.66C239.143 16.1 238.383 16.32 237.503 16.32C236.583 16.32 235.863 16.12 235.343 15.72C234.823 15.28 234.583 14.68 234.623 13.92C234.623 12.8 234.963 11.84 235.643 11.04C236.363 10.2 237.283 9.6 238.403 9.24C238.363 8.96 238.103 8.7 237.623 8.46C237.183 8.18 236.603 8.04 235.883 8.04ZM227.97 51.6C227.97 50.28 228.47 49.12 229.47 48.12C230.47 47.12 231.61 46.62 232.89 46.62C233.93 46.62 234.75 46.94 235.35 47.58C235.95 48.18 236.25 48.96 236.25 49.92C236.25 50.8 236.01 51.62 235.53 52.38C235.09 53.1 234.49 53.68 233.73 54.12C233.01 54.6 232.21 54.84 231.33 54.84C230.29 54.84 229.47 54.54 228.87 53.94C228.27 53.34 227.97 52.56 227.97 51.6Z" fill="black"/>
</svg>
